<?xml version="1.0" encoding="UTF-8"?> <svg xmlns="http://www.w3.org/2000/svg" xmlns:xlink="http://www.w3.org/1999/xlink" width="356pt" height="159pt" viewBox="0 0 356 159"> <path transform="matrix(1,0,0,-1,0,159)" d="M105.628 96.408H126.1L126.768 76.664H127.026L135.533 96.408H155.953L148.629 60.318H136.256L142.028 88.676H141.717L128.83 60.318H117.336L116.196 88.676H115.835L110.063 60.318H98.307L105.628 96.408" fill="#0072bc"></path> <path transform="matrix(1,0,0,-1,0,159)" d="M184.3 73.727H185.125C188.992 73.727 191.158 77.951 191.158 81.094 191.158 83.414 189.818 85.168 187.394 85.168H186.621L184.3 73.727ZM174.039 85.168H173.268C169.606 85.168 167.133 81.303 167.133 77.898 167.133 75.789 168.422 73.727 170.898 73.727H171.721L174.039 85.168ZM168.268 59.699 169.403 65.478H166.926C157.438 65.478 153.982 70.834 153.982 76.197 153.982 84.137 160.378 93.418 172.959 93.418H175.125L176.205 98.832H190.029L188.945 93.418H191.109C196.16 93.418 204.305 92.232 204.305 82.641 204.305 74.24 198.276 65.478 185.951 65.478H183.218L182.084 59.699H168.268" fill="#0072bc"></path> <path transform="matrix(1,0,0,-1,0,159)" d="M245.466 96.408 243.3 85.734H231.13L225.977 60.318H212.159L217.313 85.734H205.143L207.309 96.408H245.466" fill="#0072bc"></path> <path transform="matrix(1,0,0,-1,0,159)" d="M262.376 96.408 258.198 75.789H258.405L271.712 96.408H287.848L280.528 60.318H266.708L270.831 80.529H270.626L257.378 60.318H241.239L248.557 96.408H262.376" fill="#0072bc"></path> <path transform="matrix(1,0,0,-1,0,159)" d="M298.575 46.717 300.538 56.947 319.874 51.131 298.575 46.717" fill="#0072bc"></path> <path transform="matrix(1,0,0,-1,0,159)" d="M293.993 54.617H94.229C90.539 54.617 88.934 50.523 87.385 46.564 86.843 45.185 85.992 43.015 85.342 42.121 84.163 43.297 83.297 48.916 82.959 51.131L82.771 52.355C81.582 59.957 80.512 67.98 79.475 75.734 74.945 109.65 72.798 121.525 66.494 121.645 58.588 121.793 55.778 107.789 47.44 66.224L46.348 60.793C45.111 54.617 42.295 54.617 41.093 54.617H37.34L36.409 49.268H41.093C44.229 49.268 49.766 50.629 51.594 59.74L52.682 65.172C57.825 90.797 62.684 114.971 66.116 116.18 69.098 113.006 72.022 91.137 74.172 75.029 75.215 67.242 76.287 59.191 77.49 51.529L77.672 50.328C78.606 44.195 79.766 36.564 85.52 36.564 89.21 36.564 90.815 40.656 92.364 44.615 92.957 46.129 93.922 48.578 94.59 49.268H293.065L293.993 54.617" fill="#0072bc"></path> </svg> 